<?xml version="1.0" encoding="UTF-8" standalone="no"?>
<svg
   xmlns:dc="http://purl.org/dc/elements/1.1/"
   xmlns:cc="http://creativecommons.org/ns#"
   xmlns:rdf="http://www.w3.org/1999/02/22-rdf-syntax-ns#"
   xmlns:svg="http://www.w3.org/2000/svg"
   xmlns="http://www.w3.org/2000/svg"
   xmlns:sodipodi="http://sodipodi.sourceforge.net/DTD/sodipodi-0.dtd"
   xmlns:inkscape="http://www.inkscape.org/namespaces/inkscape"
   width="64.474487mm"
   height="61.918381mm"
   viewBox="0 0 64.474487 61.918381"
   version="1.1"
   id="svg8"
   inkscape:version="1.0.2-2 (e86c870879, 2021-01-15)"
   sodipodi:docname="Logo.svg">
  <defs
     id="defs2" />
  <sodipodi:namedview
     id="base"
     pagecolor="#ffffff"
     bordercolor="#666666"
     borderopacity="1.0"
     inkscape:pageopacity="0.0"
     inkscape:pageshadow="2"
     inkscape:zoom="1.4"
     inkscape:cx="155.55153"
     inkscape:cy="114.59153"
     inkscape:document-units="mm"
     inkscape:current-layer="layer1"
     inkscape:document-rotation="0"
     showgrid="false"
     inkscape:window-width="1304"
     inkscape:window-height="745"
     inkscape:window-x="-8"
     inkscape:window-y="-8"
     inkscape:window-maximized="1" />
  <metadata
     id="metadata5">
    <rdf:RDF>
      <cc:Work
         rdf:about="">
        <dc:format>image/svg+xml</dc:format>
        <dc:type
           rdf:resource="http://purl.org/dc/dcmitype/StillImage" />
        <dc:title></dc:title>
      </cc:Work>
    </rdf:RDF>
  </metadata>
  <g
     inkscape:label="Capa 1"
     inkscape:groupmode="layer"
     id="layer1"
     transform="translate(-69.855303,-27.798345)">
    <path
       style="fill:#000000;stroke-width:0.370885"
       d="m 101.70731,87.008208 c -0.23615,-1.8996 -1.02516,-9.16589 -1.753343,-16.14732 -0.72818,-6.98142 -1.41459,-13.127574 -1.52537,-13.658103 -0.13739,-0.658028 -1.53172,-2.061281 -4.38704,-4.415132 -2.3021,-1.897789 -6.74655,-5.97894 -9.87656,-9.069225 l -5.69092,-5.618697 -2.24315,0.743657 c -1.23373,0.409013 -2.54287,0.742735 -2.90921,0.741607 -1.27387,-0.0039 -3.47004,-0.771165 -3.46641,-1.211007 0.009,-1.07737 1.97586,-4.4533 3.57492,-6.135666 0.9614,-1.011481 2.69458,-2.294379 3.85152,-2.850884 1.84919,-0.889492 2.54036,-1.012452 5.7167,-1.017004 1.98725,-0.0028 3.74344,0.12263 3.90265,0.27884 0.43006,0.421971 -1.12829,3.33883 -2.69635,5.046911 -0.75494,0.822348 -1.30696,1.547145 -1.22671,1.610659 0.0802,0.06351 2.41714,1.74339 5.1931,3.733056 11.980123,8.586739 13.804073,9.797864 14.300463,9.495707 0.27312,-0.166245 4.48884,-3.242031 9.36827,-6.835082 l 8.87169,-6.532819 -1.52934,-1.904028 c -0.84114,-1.047216 -1.85838,-2.538736 -2.26053,-3.314489 l -0.73117,-1.410461 0.96932,-0.362681 c 1.72526,-0.645521 6.31275,-0.431849 8.56965,0.399148 2.67271,0.984106 5.73236,3.739812 7.20068,6.485375 1.83496,3.431122 1.84171,3.603013 0.16094,4.098585 -2.06237,0.608083 -3.49573,0.533093 -5.62927,-0.294511 l -1.86233,-0.722402 -5.90925,5.794313 c -3.25008,3.186872 -7.71782,7.265843 -9.92831,9.064378 -2.21049,1.798538 -4.01907,3.432688 -4.01907,3.63145 0,0.703437 -1.88778,21.117185 -2.46966,26.705985 -0.76981,7.3938 -1.02779,7.99839 -1.56591,3.66984 z M 87.423397,64.759488 c -3.35556,-1.87794 -5.23413,-4.420555 -5.23413,-7.084284 0,-2.965743 1.62131,-2.879258 4.99382,0.266387 2.3004,2.14565 3.96892,4.981497 3.97533,6.756507 0.003,0.86044 -0.15016,1.01114 -1.02448,1.00737 -0.56548,-0.003 -1.78522,-0.42813 -2.71054,-0.94598 z m 26.295123,0.3709 c -0.65842,-1.68853 1.71109,-5.723967 4.82441,-8.216301 2.82963,-2.265233 4.02396,-1.989167 4.02396,0.930124 0,2.506617 -1.90153,4.996667 -5.26698,6.897107 -1.94418,1.09786 -3.24971,1.23969 -3.58139,0.38907 z"
       id="path44" />
    <path
       style="fill:#000000;stroke-width:0.370885"
       id="path42"
       d="" />
  </g>
</svg>
